<svg xmlns="http://www.w3.org/2000/svg" width="20" height="16" viewBox="0 0 20 16">
  <path id="Icon_awesome-crown" data-name="Icon awesome-crown" d="M16.5,14H3.5a.5.5,0,0,0-.5.5v1a.5.5,0,0,0,.5.5h13a.5.5,0,0,0,.5-.5v-1A.5.5,0,0,0,16.5,14Zm2-10A1.5,1.5,0,0,0,17,5.5a1.47,1.47,0,0,0,.138.619L14.875,7.475a1,1,0,0,1-1.381-.362L10.947,2.656a1.5,1.5,0,1,0-1.894,0L6.506,7.112a1,1,0,0,1-1.381.362L2.866,6.119A1.5,1.5,0,1,0,1.5,7a1.532,1.532,0,0,0,.241-.025L4,13H16l2.259-6.025A1.532,1.532,0,0,0,18.5,7a1.5,1.5,0,0,0,0-3Z" fill="#ef2121"/>
</svg>
