<svg xmlns="http://www.w3.org/2000/svg" width="9.396" height="10.249" viewBox="0 0 9.396 10.249">
  <g id="Group_1991" data-name="Group 1991" transform="translate(-972.895 -1178)">
    <path id="Icon_ionic-ios-arrow-back" data-name="Icon ionic-ios-arrow-back" d="M13.017,11.317l3.878-3.875a.732.732,0,0,0-1.037-1.034L11.464,10.8a.731.731,0,0,0-.021,1.01l4.412,4.421a.732.732,0,1,0,1.037-1.034Z" transform="translate(961.645 1171.807)"/>
    <path id="Icon_ionic-ios-arrow-back-2" data-name="Icon ionic-ios-arrow-back" d="M12.568,10.015l2.893-2.89a.546.546,0,0,0-.774-.772L11.41,9.628a.545.545,0,0,0-.016.753l3.291,3.3a.546.546,0,0,0,.774-.772Z" transform="translate(966.67 1173.109)"/>
  </g>
</svg>
