<svg xmlns="http://www.w3.org/2000/svg" width="9.396" height="10.249" viewBox="0 0 9.396 10.249">
  <g id="Group_1991" data-name="Group 1991" transform="translate(0)">
    <path id="Icon_ionic-ios-arrow-back" data-name="Icon ionic-ios-arrow-back" d="M15.343,11.317,11.466,7.442A.732.732,0,0,1,12.5,6.408L16.9,10.8a.731.731,0,0,1,.021,1.01l-4.412,4.421a.732.732,0,0,1-1.037-1.034Z" transform="translate(-7.714 -6.194)"/>
    <path id="Icon_ionic-ios-arrow-back-2" data-name="Icon ionic-ios-arrow-back" d="M14.3,10.015,11.411,7.125a.546.546,0,0,1,.774-.772l3.277,3.275a.545.545,0,0,1,.016.753l-3.291,3.3a.546.546,0,0,1-.774-.772Z" transform="translate(-11.251 -4.891)"/>
  </g>
</svg>
