<svg xmlns="http://www.w3.org/2000/svg" width="8.856" height="7.085" viewBox="0 0 8.856 7.085">
  <path id="Icon_awesome-car-alt" data-name="Icon awesome-car-alt" d="M8.094,7.237l-.207-.518L7.518,5.8A2.056,2.056,0,0,0,5.6,4.5H3.257A2.057,2.057,0,0,0,1.338,5.8L.97,6.718l-.207.518A1.178,1.178,0,0,0,0,8.338v.886A1.171,1.171,0,0,0,.3,10v1a.59.59,0,0,0,.59.59h.59a.59.59,0,0,0,.59-.59V10.4H6.79v.59a.59.59,0,0,0,.59.59h.59a.59.59,0,0,0,.59-.59V10a1.17,1.17,0,0,0,.3-.774V8.338A1.178,1.178,0,0,0,8.094,7.237Zm-5.659-1a.886.886,0,0,1,.822-.557H5.6a.886.886,0,0,1,.822.557l.368.919H2.066l.368-.919ZM1.476,9.22a.589.589,0,1,1,0-1.177,1.136,1.136,0,0,1,.886.883C2.362,9.279,1.83,9.22,1.476,9.22Zm5.9,0c-.354,0-.886.059-.886-.294a1.136,1.136,0,0,1,.886-.883.589.589,0,1,1,0,1.177Z" transform="translate(0 -4.5)" fill="#a9aaaf"/>
</svg>
