<svg xmlns="http://www.w3.org/2000/svg" width="10.394" height="8.315" viewBox="0 0 10.394 8.315">
  <path id="Icon_awesome-car-crash" data-name="Icon awesome-car-crash" d="M2.326,3.585l-.2.753a1.531,1.531,0,0,0-.039.558l-.572.471a.147.147,0,0,1-.237-.142L1.527,3.98A.147.147,0,0,0,1.4,3.8L.132,3.682a.147.147,0,0,1-.067-.269l1.058-.7a.147.147,0,0,0,.032-.216L.348,1.513a.147.147,0,0,1,.143-.237l1.245.251a.147.147,0,0,0,.175-.13L2.034.132A.147.147,0,0,1,2.3.065l.7,1.058a.147.147,0,0,0,.216.032L4.2.348A.147.147,0,0,1,4.44.49L4.256,1.4c-.044.05-.088.1-.128.153l-.522.7-.174.233A1.566,1.566,0,0,0,2.326,3.585Zm8.032,2.152-.2.753a1.018,1.018,0,0,1-.285.477,1.086,1.086,0,0,1-.142.114L9.5,7.929a.519.519,0,0,1-.636.368l-.5-.134A.52.52,0,0,1,8,7.525l.134-.5L4.114,5.947l-.134.5a.52.52,0,0,1-.636.368l-.5-.134a.519.519,0,0,1-.368-.636L2.7,5.2a1.082,1.082,0,0,1-.066-.17,1.017,1.017,0,0,1-.008-.555l.2-.753a1.032,1.032,0,0,1,.6-.685,1.045,1.045,0,0,1,.3-.077l.294-.393.522-.7a1.829,1.829,0,0,1,.616-.525A1.783,1.783,0,0,1,5.4,1.236a1.8,1.8,0,0,1,.524-.1,1.834,1.834,0,0,1,.543.062l1.992.534a1.83,1.83,0,0,1,.5.218A1.809,1.809,0,0,1,9.8,3.274l.1.865.058.488a1.047,1.047,0,0,1,.369.486,1.026,1.026,0,0,1,.028.623ZM4.15,3.805a.49.49,0,0,0-.636.366.49.49,0,0,0,.368.635c.3.081.74.252.82-.048A1,1,0,0,0,4.15,3.805Zm4.719.457-.1-.865a.779.779,0,0,0-.572-.661L6.2,2.2a.78.78,0,0,0-.826.286l-.522.7,2.793.748,1.223.328Zm.3.888a1,1,0,0,0-.954.549c-.08.3.385.371.686.452a.518.518,0,1,0,.268-1Z" transform="translate(0 0.001)" fill="#a9aaaf"/>
</svg>
