<svg xmlns="http://www.w3.org/2000/svg" width="17.773" height="17.773" viewBox="0 0 17.773 17.773">
  <path id="Icon_material-call" data-name="Icon material-call" d="M8.074,12.192A14.957,14.957,0,0,0,14.581,18.7l2.172-2.172a.982.982,0,0,1,1.007-.237,11.263,11.263,0,0,0,3.525.563.99.99,0,0,1,.987.987v3.446a.99.99,0,0,1-.987.987A16.784,16.784,0,0,1,4.5,5.487.99.99,0,0,1,5.487,4.5H8.943a.99.99,0,0,1,.987.987,11.217,11.217,0,0,0,.563,3.525.991.991,0,0,1-.247,1.007L8.074,12.192Z" transform="translate(-4.5 -4.5)" fill="#fff"/>
</svg>
