<svg xmlns="http://www.w3.org/2000/svg" width="4.974" height="8.845" viewBox="0 0 4.974 8.845">
  <path id="Icon_awesome-dollar-sign" data-name="Icon awesome-dollar-sign" d="M3.616,4.032,1.75,3.486a.51.51,0,0,1,.143-1H3.039a1.054,1.054,0,0,1,.591.181.269.269,0,0,0,.337-.035l.6-.587a.28.28,0,0,0-.031-.423,2.443,2.443,0,0,0-1.494-.518V.276A.277.277,0,0,0,2.766,0H2.213a.277.277,0,0,0-.276.276v.829H1.894A1.893,1.893,0,0,0,.011,3.172,1.978,1.978,0,0,0,1.458,4.84l1.771.518a.51.51,0,0,1-.143,1H1.94a1.054,1.054,0,0,1-.591-.181.269.269,0,0,0-.337.035l-.6.587a.28.28,0,0,0,.031.423,2.443,2.443,0,0,0,1.494.518v.829a.277.277,0,0,0,.276.276h.553a.277.277,0,0,0,.276-.276V7.736A1.951,1.951,0,0,0,4.868,6.48,1.9,1.9,0,0,0,3.616,4.032Z" transform="translate(-0.003)" fill="#a9aaaf"/>
</svg>
