<svg id="Icon_ionic-ios-document" data-name="Icon ionic-ios-document" xmlns="http://www.w3.org/2000/svg" width="17.489" height="23.012" viewBox="0 0 17.489 23.012">
  <path id="Path_89" data-name="Path 89" d="M21.695,9.634H26.93a.285.285,0,0,0,.288-.288h0A1.7,1.7,0,0,0,26.6,8.029L22.212,4.37a1.848,1.848,0,0,0-1.185-.426h0a.425.425,0,0,0-.426.426V8.541A1.093,1.093,0,0,0,21.695,9.634Z" transform="translate(-9.728 -3.939)" fill="#fd8d0f"/>
  <path id="Path_90" data-name="Path 90" d="M16.69,8.54v-4.6H9.153A1.846,1.846,0,0,0,7.313,5.778v19.33A1.846,1.846,0,0,0,9.153,26.95H22.961A1.846,1.846,0,0,0,24.8,25.109V11.129H19.279A2.593,2.593,0,0,1,16.69,8.54Z" transform="translate(-7.313 -3.938)" fill="#fd8d0f"/>
</svg>
