<svg xmlns="http://www.w3.org/2000/svg" width="10.427" height="6.951" viewBox="0 0 10.427 6.951">
  <path id="Icon_awesome-road" data-name="Icon awesome-road" d="M10.376,10.631,7.845,4.838a.551.551,0,0,0-.5-.338H5.577l.044.419a.145.145,0,0,1-.144.16H4.949a.145.145,0,0,1-.144-.16L4.849,4.5H3.083a.551.551,0,0,0-.5.338L.05,10.631a.578.578,0,0,0,.5.821H4.116L4.3,9.683a.29.29,0,0,1,.288-.259H5.836a.29.29,0,0,1,.288.259l.187,1.768H9.874A.578.578,0,0,0,10.376,10.631ZM4.713,5.788a.145.145,0,0,1,.144-.13h.711a.145.145,0,0,1,.144.13l.083.789a.217.217,0,0,1-.216.24H4.846a.217.217,0,0,1-.216-.24l.083-.789Zm1,3.056h-1a.29.29,0,0,1-.288-.32l.092-.869A.29.29,0,0,1,4.8,7.4h.817a.29.29,0,0,1,.288.259L6,8.524A.29.29,0,0,1,5.713,8.844Z" transform="translate(0 -4.5)" fill="#a9aaaf"/>
</svg>
