<svg xmlns="http://www.w3.org/2000/svg" width="24.421" height="24.464" viewBox="0 0 24.421 24.464">
  <path id="Icon_feather-phone-call" data-name="Icon feather-phone-call" d="M16.99,5.773a5.341,5.341,0,0,1,4.22,4.22M16.99,1.5a9.615,9.615,0,0,1,8.493,8.482m-1.068,8.525v3.2a2.137,2.137,0,0,1-2.329,2.137,21.141,21.141,0,0,1-9.219-3.28,20.832,20.832,0,0,1-6.41-6.41A21.141,21.141,0,0,1,3.176,4.9,2.137,2.137,0,0,1,5.3,2.568h3.2a2.137,2.137,0,0,1,2.137,1.837,13.717,13.717,0,0,0,.748,3,2.137,2.137,0,0,1-.481,2.254L9.554,11.018a17.093,17.093,0,0,0,6.41,6.41l1.357-1.357a2.137,2.137,0,0,1,2.254-.481,13.717,13.717,0,0,0,3,.748A2.137,2.137,0,0,1,24.414,18.507Z" transform="translate(-2.167 -0.396)" fill="none" stroke="#fff" stroke-linecap="round" stroke-linejoin="round" stroke-width="2"/>
</svg>
