<svg xmlns="http://www.w3.org/2000/svg" width="18.002" height="16.716" viewBox="0 0 18.002 16.716">
  <path id="Icon_ionic-ios-star" data-name="Icon ionic-ios-star" d="M19.569,9.161H13.658l-1.8-5.36a.651.651,0,0,0-1.222,0l-1.8,5.36H2.893A.645.645,0,0,0,2.25,9.8a.472.472,0,0,0,.012.108.618.618,0,0,0,.269.454L7.389,13.79,5.525,19.211a.645.645,0,0,0,.221.723.622.622,0,0,0,.362.157.788.788,0,0,0,.4-.145l4.742-3.379,4.742,3.379a.753.753,0,0,0,.4.145.577.577,0,0,0,.358-.157.637.637,0,0,0,.221-.723L15.109,13.79l4.818-3.456.117-.1a.674.674,0,0,0,.209-.43A.68.68,0,0,0,19.569,9.161Z" transform="translate(-2.25 -3.375)" fill="#2eb2e8"/>
</svg>
