<svg xmlns="http://www.w3.org/2000/svg" width="19.976" height="19.976" viewBox="0 0 19.976 19.976">
  <path id="Icon_awesome-phone-alt" data-name="Icon awesome-phone-alt" d="M19.406,14.116l-4.37-1.873a.936.936,0,0,0-1.092.269l-1.935,2.364A14.462,14.462,0,0,1,5.1,7.964L7.46,6.029a.934.934,0,0,0,.269-1.092L5.856.566A.943.943,0,0,0,4.783.024L.726.96A.936.936,0,0,0,0,1.873a18.1,18.1,0,0,0,18.1,18.1.936.936,0,0,0,.913-.726l.936-4.058A.948.948,0,0,0,19.406,14.116Z" transform="translate(0 0)" fill="#423676"/>
</svg>
