<svg xmlns="http://www.w3.org/2000/svg" width="97.87" height="58.2" viewBox="0 0 97.87 58.2">
  <g id="ah" transform="translate(-234.3 -287.7)">
    <path id="Path_97" data-name="Path 97" d="M297.558,313.755h-7.221l-2.349,6.351h12.223ZM291.947,287.7h-.435L274.2,327.631h7.482l9.7-23.228,3.7,9.352,2.523,6.351,2.958,7.525h8.787Z" transform="translate(-22.544)" fill="#413876"/>
    <path id="Path_98" data-name="Path 98" d="M267.223,347.6l-2.566,6.351H255l2.349-6.351Z" transform="translate(-11.696 -33.845)" fill="#fd8d0f"/>
    <path id="Path_99" data-name="Path 99" d="M354.365,299.1l12.005,27.056H358.8l-3.088-6.96H338.531l3.741,8.439H334.7L317,287.7h7.569l10.7,24.185h17.182L346.8,299.053h7.569Z" transform="translate(-46.727)" fill="#fd8d0f"/>
    <g id="Group_1738" data-name="Group 1738" transform="translate(234.3 330.545)">
      <g id="Group_1737" data-name="Group 1737">
        <path id="Path_100" data-name="Path 100" d="M234.3,401.163l6.481-14.963h.174l6.481,14.963h-3.262l-4.132-10.526,2.044-1.392-4.959,11.962H234.3Zm4.437-5.22h4.306l1,2.392h-6.22Z" transform="translate(-234.3 -386.2)" fill="#413876"/>
        <path id="Path_101" data-name="Path 101" d="M271.084,409.861a2.771,2.771,0,0,1-1.957-.7,2.589,2.589,0,0,1-.826-1.87V400.9h2.74v5.394a1.746,1.746,0,0,0,.3.913,1.021,1.021,0,0,0,.87.348,1.559,1.559,0,0,0,1.044-.391,2.642,2.642,0,0,0,.7-1.131,4.627,4.627,0,0,0,.261-1.609v-3.48h2.74v8.569h-2.479l-.217-1.566.043.174a3.345,3.345,0,0,1-1.827,1.609A6.882,6.882,0,0,1,271.084,409.861Z" transform="translate(-253.511 -394.506)" fill="#413876"/>
        <path id="Path_102" data-name="Path 102" d="M294.748,392.3h2.74v3.741h2.088v2.131h-2.088v6.481h-2.74v-6.481H293.4v-2.131h1.348Z" transform="translate(-267.693 -389.647)" fill="#413876"/>
        <path id="Path_103" data-name="Path 103" d="M310.8,404.511a4.721,4.721,0,0,1,.609-2.349,4.554,4.554,0,0,1,1.74-1.653,4.982,4.982,0,0,1,2.566-.609,5.328,5.328,0,0,1,2.566.609,4.31,4.31,0,0,1,1.653,1.653,5.161,5.161,0,0,1,0,4.7,4.31,4.31,0,0,1-1.653,1.653,5.328,5.328,0,0,1-2.566.609,5.262,5.262,0,0,1-2.523-.565,4.667,4.667,0,0,1-1.74-1.566A4.582,4.582,0,0,1,310.8,404.511Zm2.784.043a2.919,2.919,0,0,0,.261,1.218,2.4,2.4,0,0,0,.739.87,1.734,1.734,0,0,0,1.044.3,2.009,2.009,0,0,0,1.131-.3,2.086,2.086,0,0,0,.739-.87,2.648,2.648,0,0,0,.261-1.218,2.779,2.779,0,0,0-.261-1.218,1.715,1.715,0,0,0-.739-.826,1.917,1.917,0,0,0-1.131-.3,1.734,1.734,0,0,0-1.044.3,2.26,2.26,0,0,0-.739.826A2.648,2.648,0,0,0,313.584,404.554Z" transform="translate(-277.524 -393.941)" fill="#413876"/>
        <path id="Path_104" data-name="Path 104" d="M351.192,387.5v14.4h-2.827v-5.872h-6.438V401.9H339.1V387.5h2.827v5.829h6.438V387.5Z" transform="translate(-293.514 -386.935)" fill="#fd8d0f"/>
        <path id="Path_105" data-name="Path 105" d="M372.9,404.511a4.721,4.721,0,0,1,.609-2.349,4.554,4.554,0,0,1,1.74-1.653,4.981,4.981,0,0,1,2.566-.609,5.328,5.328,0,0,1,2.566.609,4.31,4.31,0,0,1,1.653,1.653,5.161,5.161,0,0,1,0,4.7,4.311,4.311,0,0,1-1.653,1.653,5.328,5.328,0,0,1-2.566.609,5.261,5.261,0,0,1-2.523-.565,4.667,4.667,0,0,1-1.74-1.566A4.582,4.582,0,0,1,372.9,404.511Zm2.784.043a2.919,2.919,0,0,0,.261,1.218,2.4,2.4,0,0,0,.74.87,1.734,1.734,0,0,0,1.044.3,2.009,2.009,0,0,0,1.131-.3,1.817,1.817,0,0,0,.739-.87,2.648,2.648,0,0,0,.261-1.218,2.779,2.779,0,0,0-.261-1.218,1.715,1.715,0,0,0-.739-.826,2.433,2.433,0,0,0-1.131-.3,1.734,1.734,0,0,0-1.044.3,2.26,2.26,0,0,0-.74.826A2.649,2.649,0,0,0,375.684,404.554Z" transform="translate(-312.612 -393.941)" fill="#fd8d0f"/>
        <path id="Path_106" data-name="Path 106" d="M402.679,400.335l.217,1.522-.043-.13a4.7,4.7,0,0,1,1.261-1.348,3.57,3.57,0,0,1,1.827-.478,3.832,3.832,0,0,1,1.261.217,2.174,2.174,0,0,1,.913.565,1.848,1.848,0,0,1,.522,1h-.087a5.312,5.312,0,0,1,1.3-1.3,3.144,3.144,0,0,1,1.609-.478,2.919,2.919,0,0,1,2.044.7,2.554,2.554,0,0,1,.783,1.87V408.9h-2.74v-5.263a2.426,2.426,0,0,0-.174-.913c-.087-.261-.348-.391-.739-.391a1.579,1.579,0,0,0-1.131.478,3.123,3.123,0,0,0-.7,1.174,5.524,5.524,0,0,0-.217,1.479v3.523h-2.74v-5.263a1.768,1.768,0,0,0-.218-.913.762.762,0,0,0-.739-.391,1.483,1.483,0,0,0-1.087.478,2.584,2.584,0,0,0-.652,1.174,5.469,5.469,0,0,0-.217,1.435v3.523H400.2v-8.569h2.479Z" transform="translate(-328.037 -393.941)" fill="#fd8d0f"/>
        <path id="Path_107" data-name="Path 107" d="M442.372,409.178a6.129,6.129,0,0,1-2.653-.565A3.935,3.935,0,0,1,438.065,407a4.748,4.748,0,0,1-.565-2.392,4.34,4.34,0,0,1,.652-2.349,4.66,4.66,0,0,1,1.783-1.653,5.229,5.229,0,0,1,2.479-.609,4.36,4.36,0,0,1,3.045,1.087,5.091,5.091,0,0,1,1.522,3.088l-6.655,2.131-.609-1.479,4.828-1.609-.565.261a1.694,1.694,0,0,0-.565-.87,1.638,1.638,0,0,0-1.218-.392,1.963,1.963,0,0,0-1.087.3,2.02,2.02,0,0,0-.7.783,2.649,2.649,0,0,0-.261,1.218,2.58,2.58,0,0,0,.3,1.348,2.377,2.377,0,0,0,.783.826,2.538,2.538,0,0,0,1.131.261,1.947,1.947,0,0,0,.87-.174,7.094,7.094,0,0,0,.826-.391l1.218,2.044a5.57,5.57,0,0,1-1.479.609A5.679,5.679,0,0,1,442.372,409.178Z" transform="translate(-349.113 -393.997)" fill="#fd8d0f"/>
      </g>
    </g>
  </g>
</svg>
